#define window_icon_width 206
#define window_icon_height 146
#define window_icon_x_hot 0
#define window_icon_y_hot 0
static unsigned short window_icon_bits[] = {
   0x4000, 0x2040, 0x0000, 0x0000, 0x0000, 0x0000, 0x0000, 0x0000, 0x0000,
   0x0000, 0x0000, 0x0000, 0x0000, 0x4000, 0x3050, 0x1c00, 0x0000, 0x0000,
   0x0000, 0x0000, 0x0000, 0x0000, 0x0000, 0x0000, 0x1800, 0x0000, 0x0000,
   0x2820, 0x3600, 0x0000, 0x0000, 0x0000, 0x0000, 0x0000, 0x0000, 0x0000,
   0x0000, 0x7c00, 0x0000, 0x2800, 0x2828, 0x2e00, 0x0000, 0x0000, 0x0000,
   0x0000, 0x0000, 0x0000, 0x0000, 0x0000, 0xff00, 0x0000, 0x0444, 0x2204,
   0x1900, 0x0000, 0x0000, 0x0000, 0x0000, 0x0000, 0x0000, 0x0000, 0x0000,
   0xefc0, 0x0003, 0x0949, 0x1610, 0x1180, 0x0000, 0x0000, 0x0000, 0x0000,
   0x0000, 0x0000, 0x0000, 0x0000, 0xd7e0, 0x0007, 0x0a00, 0x010a, 0x1840,
   0x0000, 0x0000, 0x0000, 0x0000, 0x0000, 0x0000, 0x0000, 0x0000, 0xd5f8,
   0x000f, 0x0149, 0x0401, 0x0940, 0x0000, 0x0000, 0x0000, 0x0000, 0x0000,
   0x0000, 0x0000, 0x0000, 0x957e, 0x003e, 0x0a04, 0x0202, 0x04a0, 0x0000,
   0x0000, 0x0000, 0x0000, 0x0000, 0x0000, 0x0000, 0x0000, 0xaaff, 0x003e,
   0x0150, 0x0202, 0x0230, 0x0000, 0x0000, 0x0000, 0x0000, 0x0000, 0x0000,
   0x0000, 0x8000, 0xa9ff, 0x003a, 0x1249, 0x0002, 0x0290, 0x0000, 0x0000,
   0x0000, 0x0000, 0x0000, 0x0000, 0x0000, 0xc000, 0x57cf, 0x003e, 0x0281,
   0x0102, 0x0114, 0x0000, 0x0000, 0x0000, 0x0000, 0x0000, 0x0000, 0x0000,
   0xe000, 0xa7d7, 0x001c, 0x0854, 0x0000, 0x0044, 0x0000, 0x0000, 0x0000,
   0x0000, 0x0000, 0x0000, 0x0000, 0xf000, 0x5f2b, 0x001f, 0x0241, 0x0102,
   0x008a, 0x0000, 0x0000, 0x0000, 0x0000, 0x0000, 0x0000, 0x0000, 0x7800,
   0xbf15, 0x000e, 0x0aaa, 0x0004, 0x0063, 0x0000, 0x0000, 0x0000, 0x0000,
   0x0000, 0x0000, 0x0000, 0xbc00, 0xbc8a, 0x0007, 0x0000, 0x0100, 0x0025,
   0x0000, 0x0000, 0x0000, 0x0000, 0x0000, 0x0000, 0x0000, 0x5e00, 0xf845,
   0x0007, 0x0a01, 0x0002, 0x0010, 0x0000, 0x0000, 0x0000, 0x0000, 0x0000,
   0x0000, 0x0000, 0xaf00, 0xf422, 0x0003, 0x5255, 0x0102, 0x0015, 0x0000,
   0x0000, 0x0000, 0x0000, 0x0000, 0x0000, 0x0000, 0x5780, 0xe211, 0x0003,
   0x1200, 0x0004, 0x0018, 0x0000, 0x0000, 0x0000, 0x0000, 0x0000, 0x0000,
   0x0000, 0xabc0, 0xf108, 0x0001, 0xa451, 0x0100, 0x0014, 0x0000, 0x0000,
   0x0000, 0x0000, 0x0000, 0x0000, 0x0000, 0x55e0, 0xf884, 0x0000, 0x4201,
   0x0005, 0x001a, 0x0000, 0x0000, 0x0000, 0x0000, 0x0000, 0x0000, 0x0000,
   0x2af0, 0x7c42, 0x0000, 0xaedf, 0x0102, 0x0012, 0x0000, 0x0000, 0x0000,
   0x0000, 0x0000, 0x0000, 0x0000, 0x15f8, 0x3e21, 0x0000, 0x0000, 0x0000,
   0x0011, 0x0000, 0x0000, 0x0000, 0x0000, 0x0000, 0x0000, 0x0000, 0x8a7c,
   0x1f10, 0x0000, 0x0000, 0x0100, 0x0010, 0x0000, 0x0000, 0x0000, 0x0000,
   0x0000, 0x0000, 0x0000, 0x453e, 0x0f88, 0x0000, 0x5001, 0x0104, 0x0018,
   0x0000, 0x0000, 0x0000, 0x0000, 0x0000, 0x0000, 0x0000, 0x229f, 0x07c4,
   0x0000, 0xa2e1, 0x0042, 0x0010, 0x0000, 0x0000, 0x0000, 0x0000, 0x0000,
   0x0000, 0xc000, 0x114f, 0x03e2, 0x0000, 0x1011, 0x0124, 0x000a, 0x0000,
   0x0000, 0x0000, 0x0000, 0x0000, 0x0000, 0xe000, 0x08a7, 0x01f1, 0x0000,
   0x2001, 0x0048, 0x001a, 0x0000, 0x0000, 0x0000, 0x0000, 0x0000, 0x0000,
   0xf000, 0x8453, 0x0078, 0x0000, 0xdb6b, 0x01b6, 0x0010, 0x0000, 0x0000,
   0x0000, 0x0000, 0x0000, 0x0000, 0xf800, 0x4229, 0x003c, 0x0000, 0xb6d6,
   0x00aa, 0x0010, 0x0000, 0x0000, 0x0000, 0x0000, 0x0000, 0x0000, 0xf800,
   0x2114, 0x001e, 0x0000, 0x0000, 0x0000, 0x0018, 0x0000, 0x0000, 0x0000,
   0x0000, 0x0000, 0x0000, 0x7c00, 0x108a, 0x000f, 0x0000, 0x0000, 0x0000,
   0x0010, 0x0000, 0x0000, 0x0000, 0x0000, 0x0000, 0x0000, 0x2e00, 0x8845,
   0x0007, 0x0000, 0x0001, 0x0168, 0x0010, 0x0000, 0x0000, 0x0000, 0x0000,
   0x0000, 0x0000, 0x9700, 0xc422, 0x0003, 0x0000, 0x0003, 0x0068, 0x0010,
   0x0000, 0x0000, 0x0000, 0x0000, 0x0000, 0x0000, 0x4b80, 0xe211, 0x0001,
   0x0000, 0xa491, 0x740c, 0x0019, 0x0000, 0x0000, 0x0000, 0x0000, 0x0000,
   0x0000, 0xa5c0, 0xf108, 0x0000, 0x0000, 0xaff3, 0x57e8, 0x0013, 0x0000,
   0x0000, 0x0000, 0x0000, 0x0000, 0x0000, 0x52f0, 0x7884, 0x0000, 0x0000,
   0x0001, 0x1008, 0x0010, 0x0000, 0x0000, 0x0000, 0x0000, 0x0000, 0x0000,
   0x2978, 0x3c42, 0x0000, 0x0000, 0x0003, 0x0008, 0x0012, 0x0000, 0x0000,
   0x0000, 0x0000, 0x0000, 0x0000, 0x14bc, 0x1e21, 0x0000, 0x0000, 0x3fc1,
   0x1fec, 0x001a, 0x0000, 0x0000, 0x0000, 0x0000, 0x0000, 0x0000, 0x8a5e,
   0x0f10, 0x0000, 0x0000, 0x2003, 0x1008, 0x0010, 0x0000, 0x0000, 0x0000,
   0x0000, 0x0000, 0x0000, 0x452f, 0x0788, 0x0000, 0x0000, 0x0001, 0xf00c,
   0x0013, 0x0000, 0x0000, 0x0000, 0x0000, 0x0000, 0x8000, 0x2297, 0x03c4,
   0x0000, 0x0000, 0x0003, 0x0008, 0x0010, 0x0000, 0x0000, 0x0000, 0x0000,
   0x0000, 0xc000, 0x114b, 0x01e2, 0x0000, 0x0000, 0x52a9, 0xa2aa, 0x001a,
   0xffff, 0xffff, 0xffff, 0xffff, 0xffff, 0xffff, 0x08a5, 0x00f1, 0x0000,
   0x0000, 0xffff, 0xffff, 0x001f, 0xffff, 0xffff, 0xffff, 0xffff, 0xffff,
   0xffff, 0x8452, 0x0078, 0x0000, 0x0000, 0x4924, 0x4492, 0x0000, 0xffff,
   0xffff, 0xffff, 0xffff, 0xffff, 0x7fff, 0x4229, 0x003c, 0x0000, 0x0000,
   0x0000, 0x0000, 0x0000, 0xffff, 0xffff, 0xffff, 0xffff, 0xffff, 0xffff,
   0x2114, 0x001e, 0x0000, 0x0000, 0x0000, 0x0000, 0x0000, 0xffff, 0xffff,
   0xffff, 0xffff, 0xffff, 0x3fff, 0x108a, 0x000f, 0x0000, 0x0000, 0x0000,
   0x0000, 0x0000, 0x0000, 0x0000, 0x0000, 0x0000, 0x0000, 0x9f80, 0x8845,
   0x0007, 0x0000, 0x0000, 0x003e, 0x0000, 0x0000, 0x0000, 0x0000, 0x0000,
   0x0000, 0x0000, 0x4fc0, 0xc422, 0x0003, 0x0000, 0x0000, 0x003e, 0x0000,
   0x0000, 0x0000, 0x0000, 0x000e, 0x0000, 0x0000, 0x27e0, 0xe211, 0x0001,
   0x0000, 0x0000, 0x003e, 0x0000, 0x0000, 0x0000, 0x0000, 0x001f, 0x0000,
   0x0000, 0x92f0, 0xf110, 0x0000, 0x0000, 0x0000, 0x003e, 0x0000, 0x0000,
   0x0000, 0x0000, 0x001f, 0x0000, 0x0000, 0x4978, 0x7888, 0x0000, 0x0000,
   0x0000, 0x003e, 0x0000, 0x0000, 0x1010, 0x0010, 0x081f, 0x0808, 0x0808,
   0x24bc, 0x3e44, 0x0000, 0x0000, 0x0000, 0x203e, 0x8020, 0x1020, 0x0101,
   0x0401, 0x805f, 0x8080, 0x0080, 0x125e, 0x3f22, 0x0000, 0x0000, 0x0000,
   0x023e, 0x1101, 0x0200, 0x0000, 0x0080, 0x001f, 0x0000, 0x4000, 0x092f,
   0x3f91, 0x0000, 0x0000, 0x0000, 0x003e, 0x0000, 0x0000, 0x0000, 0x0000,
   0xe01f, 0xffff, 0x9fff, 0x8497, 0x3fc8, 0x0000, 0x0000, 0x0000, 0x003e,
   0x0000, 0x0002, 0x0000, 0x0000, 0xe01f, 0xffff, 0xcfff, 0x424b, 0x3fe4,
   0x0000, 0x0000, 0x0000, 0x003e, 0x0000, 0x0000, 0x1010, 0x0402, 0xe11f,
   0xffff, 0xe3ff, 0x2125, 0x3e72, 0x0000, 0x0000, 0x0000, 0xc03e, 0xffff,
   0xffff, 0xffff, 0x00ff, 0x001f, 0x0000, 0xf000, 0x1092, 0x3e39, 0x0000,
   0x0000, 0x0000, 0xc23e, 0xffff, 0xffff, 0xffff, 0x00ff, 0x001f, 0x0000,
   0x7800, 0x8849, 0x3e1c, 0x0000, 0x0000, 0x0000, 0xc03e, 0xffff, 0xffff,
   0xffff, 0x00ff, 0x001f, 0x0000, 0xbc00, 0x4424, 0x3e1e, 0x0000, 0x0000,
   0x0000, 0x003e, 0x0000, 0x0000, 0x0000, 0x0000, 0x001f, 0x0000, 0x5f00,
   0x2212, 0x3e0f, 0x0000, 0x0000, 0x0000, 0x003e, 0x0000, 0x0000, 0x0000,
   0x0400, 0x011f, 0x0000, 0x2f80, 0x9109, 0x3e07, 0x0000, 0x0000, 0x0000,
   0x003e, 0x0000, 0x0000, 0x0000, 0x0000, 0x081f, 0x8081, 0x97c0, 0xc884,
   0x3e03, 0x0000, 0x0000, 0x0000, 0x023e, 0x0000, 0x0000, 0x0000, 0x0000,
   0x001f, 0x0810, 0x4be8, 0xe442, 0x3e01, 0x0000, 0x0000, 0x0000, 0x003e,
   0x0000, 0x0000, 0x0000, 0x0000, 0x001f, 0x0000, 0x25f0, 0xf221, 0x3e00,
   0x0000, 0x0000, 0x0000, 0x103e, 0x0808, 0x0808, 0x0808, 0x0211, 0x001f,
   0xfffc, 0x92fb, 0x7910, 0x3e00, 0x0000, 0x0000, 0x0000, 0x403e, 0x8080,
   0x8080, 0x0080, 0x0000, 0x101f, 0xfffc, 0x497d, 0x3c88, 0x3e08, 0x0000,
   0x0000, 0x0000, 0x003e, 0x0000, 0x0000, 0x0000, 0x0000, 0x011f, 0xfffc,
   0x249e, 0x3e44, 0x3e00, 0x0000, 0x0000, 0x0000, 0x003e, 0x0000, 0x0000,
   0x0000, 0x0400, 0x001f, 0x0000, 0x126f, 0x0f22, 0x3e00, 0x0000, 0x0000,
   0x0000, 0x003e, 0x0000, 0x0000, 0x1000, 0x0008, 0x001f, 0x8000, 0x0917,
   0x0791, 0x3e00, 0x0000, 0x0000, 0x0000, 0x80be, 0x0808, 0x0808, 0x0008,
   0x0000, 0x201f, 0xc000, 0x848b, 0x03c8, 0x3e08, 0x0000, 0x0000, 0x0000,
   0x003e, 0x8080, 0x8080, 0x8080, 0x0020, 0x001f, 0xe000, 0x4245, 0x41e4,
   0x3e00, 0x0000, 0x0000, 0x0000, 0x043e, 0x0000, 0x0000, 0x0000, 0x0400,
   0x011f, 0xf000, 0x2122, 0x00f2, 0x3e00, 0x0000, 0x0000, 0x0000, 0x003e,
   0x0000, 0x0000, 0x0000, 0x0000, 0x801f, 0x7800, 0x1091, 0x0079, 0x3e00,
   0x0000, 0x0000, 0x0000, 0x003e, 0x0000, 0x0000, 0x0400, 0x0000, 0x001f,
   0xbc44, 0x8848, 0x003c, 0x3e08, 0x0000, 0x0000, 0x0000, 0x103e, 0x0101,
   0x0101, 0x0001, 0x0021, 0x041f, 0x5e00, 0x4424, 0x841e, 0x3e00, 0x0000,
   0x0000, 0x0000, 0x003e, 0x0808, 0x0808, 0x0044, 0x0400, 0x001f, 0x2f00,
   0x2212, 0x000f, 0x3e00, 0x0000, 0x0000, 0x0000, 0xc03e, 0xffff, 0xffff,
   0xffff, 0x007f, 0x001f, 0x1780, 0x9109, 0x0007, 0x3e00, 0x0000, 0x0000,
   0x0000, 0xc03e, 0xffff, 0xffff, 0xffff, 0x007f, 0x201f, 0x8bc0, 0xc884,
   0x0003, 0x3e00, 0x0000, 0x0000, 0x0000, 0xc03e, 0xffff, 0xffff, 0xffff,
   0x007f, 0x001f, 0x45f2, 0xe442, 0x008d, 0x3e11, 0x0000, 0x0000, 0x0000,
   0x013e, 0x0000, 0x0000, 0x0000, 0x0000, 0xfc9f, 0x22f7, 0xf221, 0xfe0e,
   0x3e3f, 0x0000, 0x0000, 0x0000, 0x003e, 0x0000, 0x0000, 0x0000, 0x0200,
   0xfc1f, 0x91ff, 0x7910, 0xfe0f, 0x3e3f, 0x0000, 0x0000, 0x0000, 0x003e,
   0x0000, 0x0000, 0x0000, 0x0000, 0xfc1f, 0x4bfb, 0x3c88, 0xfe00, 0x3e3f,
   0x0000, 0x0000, 0x0000, 0x003e, 0x0000, 0x0000, 0x0000, 0x0000, 0x001f,
   0x2fbc, 0x1e44, 0x0000, 0x3e00, 0x0000, 0x0000, 0x0000, 0x083e, 0x0000,
   0x0000, 0x0000, 0x0810, 0x001f, 0x1f1c, 0x0f22, 0x0000, 0x3e00, 0x0000,
   0x0000, 0x0000, 0x003e, 0x0202, 0x0202, 0x8202, 0x0000, 0x001f, 0x3e1e,
   0x0791, 0x0000, 0x3e00, 0x0000, 0x0000, 0x0000, 0x003e, 0x2020, 0x2020,
   0x0020, 0x0040, 0x001f, 0xf80e, 0x03c8, 0x0010, 0x3e00, 0x0000, 0x0000,
   0x0000, 0x203e, 0x0000, 0x0000, 0x0000, 0x0000, 0x001f, 0xf00f, 0x81e5,
   0x0000, 0x3e00, 0x0000, 0x0000, 0x0000, 0x013e, 0x0000, 0x0000, 0x0400,
   0x0000, 0x021f, 0xe007, 0x00fb, 0x1080, 0x3e04, 0x0000, 0x0000, 0x0000,
   0x003e, 0x0000, 0x0000, 0x8000, 0x0100, 0x801f, 0x8007, 0x007f, 0x0000,
   0x3e00, 0x0000, 0x0000, 0x0000, 0x003e, 0x0202, 0x0202, 0x0002, 0x0400,
   0x801f, 0x0003, 0x043f, 0x0001, 0x3e00, 0x0000, 0x0000, 0x0000, 0x003e,
   0x2020, 0x2020, 0x0020, 0x0004, 0xc81f, 0x8003, 0x001f, 0x4000, 0x3e10,
   0x0000, 0x0000, 0x0000, 0x203e, 0x0000, 0x0000, 0x0400, 0x0000, 0xc01f,
   0xe001, 0x000f, 0x0108, 0x3e00, 0x0000, 0x0000, 0x0000, 0xc23e, 0xffff,
   0xffff, 0xffff, 0x003f, 0xe01f, 0xf800, 0x0003, 0x0000, 0x3e00, 0x0000,
   0x0000, 0x0000, 0xc03e, 0xffff, 0xffff, 0xffff, 0x003f, 0xf05f, 0xfe00,
   0xfffe, 0x0003, 0x3e00, 0x0000, 0x0000, 0x0000, 0xc03e, 0xffff, 0xffff,
   0xffff, 0x023f, 0x701f, 0x3f80, 0xffff, 0x4403, 0x3e00, 0x0000, 0x0000,
   0x0000, 0x003e, 0x0000, 0x0000, 0x0000, 0x0000, 0x781f, 0xcfe0, 0xffff,
   0x0013, 0x3e08, 0x0000, 0x0000, 0x0000, 0x003e, 0x0000, 0x0000, 0x0000,
   0x0000, 0xf81f, 0x03f8, 0x0000, 0x0000, 0x3e00, 0x0000, 0x0000, 0x0000,
   0x003e, 0x0000, 0x0000, 0x0000, 0x0400, 0xfc1f, 0x007f, 0x0000, 0x0000,
   0x3e00, 0x0000, 0x0000, 0x0000, 0x023e, 0x0000, 0x0000, 0x0000, 0x0000,
   0xfc1f, 0x001f, 0x0000, 0x2040, 0x3e00, 0x0000, 0x0000, 0x0000, 0x003e,
   0x0000, 0x0000, 0x0000, 0x0020, 0xfe1f, 0x0007, 0x0000, 0x0000, 0x3e08,
   0x0000, 0x0000, 0x0000, 0x203e, 0x1010, 0x1010, 0x0810, 0x0001, 0xfe1f,
   0x0001, 0x0000, 0x8200, 0x3e00, 0x0000, 0x0000, 0x0000, 0x803e, 0x0100,
   0x8101, 0x0040, 0x0400, 0x7c1f, 0x8000, 0x2040, 0x0002, 0x3e00, 0x0000,
   0x0000, 0x0000, 0x003e, 0x0000, 0x0000, 0x0000, 0x0000, 0x001f, 0x0880,
   0x0408, 0x0000, 0x3e00, 0x0000, 0x0000, 0x0000, 0x013e, 0x0000, 0x0000,
   0xfc00, 0x003f, 0x001f, 0x0000, 0xff00, 0xffff, 0x3e09, 0x0000, 0x0000,
   0x0000, 0xe03e, 0xffff, 0xffff, 0xfc0f, 0x003f, 0x001f, 0x0008, 0xff00,
   0xffff, 0x3e01, 0x0000, 0x0000, 0x0000, 0xe03e, 0xffff, 0xffff, 0xfc0f,
   0x043f, 0xf81f, 0xffff, 0xff3f, 0xffff, 0x3e01, 0x0000, 0x0000, 0x0000,
   0xe03e, 0xffff, 0xffff, 0x000f, 0x0000, 0xf81f, 0xffff, 0x073f, 0xc000,
   0x3e01, 0x0000, 0x0000, 0x0000, 0x003e, 0x0000, 0x0000, 0x0000, 0x0000,
   0xf81f, 0xffff, 0x073f, 0xc000, 0x3e01, 0x0000, 0x0000, 0x0000, 0x003e,
   0x0000, 0x0000, 0x0020, 0x0000, 0x001f, 0x0000, 0x0700, 0xc000, 0x3e11,
   0x0000, 0x0000, 0x0000, 0x013e, 0x0000, 0x0000, 0x0000, 0x0420, 0x005f,
   0x0000, 0x0700, 0xc000, 0x3e01, 0x0000, 0x0000, 0x0000, 0x003e, 0x0000,
   0x0000, 0x0000, 0x0000, 0x001f, 0x0000, 0x0700, 0xc000, 0x3e01, 0x0000,
   0x0000, 0x0000, 0x003e, 0x0000, 0x0000, 0x8440, 0x0000, 0x001f, 0x0000,
   0x0700, 0xc000, 0x3e01, 0x0000, 0x0000, 0x0000, 0x083e, 0x0404, 0x4204,
   0x0000, 0x0000, 0x001f, 0x0000, 0x0700, 0xc000, 0x3e01, 0x0000, 0x0000,
   0x0000, 0x203e, 0x2040, 0x0010, 0x0001, 0x0420, 0x421f, 0x4040, 0x0700,
   0xc000, 0x3e01, 0x0000, 0x0000, 0x0000, 0x003e, 0xfc00, 0xffff, 0x1fff,
   0x0002, 0xfe1f, 0xffff, 0x071f, 0xc000, 0x3e11, 0x0000, 0x0000, 0x0000,
   0x003e, 0xfc00, 0xffff, 0x1fff, 0x0000, 0xfe1f, 0xffff, 0x071f, 0xc000,
   0x3e01, 0x0000, 0x0000, 0x0000, 0x003e, 0xfc00, 0xffff, 0x1fff, 0x0000,
   0xfe1f, 0xffff, 0x071f, 0xc000, 0x3e01, 0x0000, 0x0000, 0x0000, 0x403e,
   0x0004, 0x0000, 0x0000, 0x0420, 0x001f, 0x0000, 0x0700, 0xc000, 0x3e01,
   0x0000, 0x0000, 0x0000, 0x023e, 0x0000, 0x0000, 0x0000, 0x0000, 0x001f,
   0x0000, 0x0700, 0xc000, 0x3e01, 0x0000, 0x0000, 0x0000, 0x003e, 0x0000,
   0x0000, 0x0000, 0x0001, 0x001f, 0x0000, 0x0700, 0xc000, 0x3e01, 0x0000,
   0x0000, 0x0000, 0x003e, 0x0010, 0x0000, 0x1000, 0x0000, 0x001f, 0x0000,
   0xff00, 0xffff, 0x3e11, 0x0000, 0x0000, 0x0000, 0x003e, 0x0000, 0x0000,
   0x0000, 0x0420, 0x001f, 0x0000, 0xff00, 0xffff, 0x3e01, 0x0000, 0x0000,
   0x0000, 0x443e, 0x0840, 0x0808, 0x0084, 0x0000, 0x021f, 0x4202, 0xff04,
   0xffff, 0x3e01, 0x0000, 0x0000, 0x0000, 0x003e, 0x8000, 0x2040, 0x0000,
   0x0001, 0x201f, 0x0020, 0x0000, 0x0000, 0x3e00, 0x0000, 0x0000, 0x0000,
   0x003e, 0x0000, 0x0000, 0x0000, 0x0000, 0x001f, 0x0000, 0x0000, 0x0000,
   0x3e00, 0x0000, 0x0000, 0x0000, 0x003e, 0x0002, 0x0000, 0x0800, 0x0420,
   0x001f, 0x0000, 0x0000, 0x0000, 0x3e00, 0x0000, 0x0000, 0x0000, 0x203e,
   0x0040, 0x0000, 0x0084, 0x0000, 0x000e, 0x0400, 0x0004, 0x0000, 0x3e11,
   0x0000, 0x0000, 0x0000, 0x013e, 0x0800, 0x0000, 0x0000, 0x0001, 0x0200,
   0x2002, 0x0000, 0x0000, 0x3e00, 0x0000, 0x0000, 0x0000, 0xfffe, 0xffff,
   0xffff, 0xffff, 0xffff, 0xffff, 0xffff, 0xffff, 0xffff, 0x3fff, 0x0000,
   0x0000, 0x0000, 0xfffe, 0xffff, 0xffff, 0xffff, 0xffff, 0xffff, 0xffff,
   0xffff, 0xffff, 0x3fff, 0x0000, 0x0000, 0x0000, 0xfffe, 0xffff, 0xffff,
   0xffff, 0xffff, 0xffff, 0xffff, 0xffff, 0xffff, 0x3fff, 0x0000, 0x0000,
   0x0000, 0xfffe, 0xffff, 0xffff, 0xffff, 0xffff, 0xffff, 0xffff, 0xffff,
   0xffff, 0x3fff, 0x0000, 0x0000, 0x0000, 0xfffe, 0xffff, 0xffff, 0xffff,
   0xffff, 0xffff, 0xffff, 0xffff, 0xffff, 0x3fff, 0x0000, 0x0000, 0x0000,
   0x0000, 0x0000, 0x0000, 0x0000, 0x0000, 0x0000, 0x0000, 0x0000, 0x0000,
   0x0000, 0x0000, 0x0000, 0x0000, 0x0000, 0x0000, 0x0000, 0x0000, 0x0000,
   0x0000, 0x0000, 0x0000, 0x0000, 0x0000, 0x0000, 0x0000, 0x0000, 0x0000,
   0x0000, 0x0000, 0x0000, 0x0000, 0x0000, 0x0000, 0x0000, 0x0000, 0x0000,
   0x0000, 0x0000, 0x0000, 0x0000, 0x0000, 0x0000, 0x0000, 0x0000, 0x0000,
   0x0000, 0x0000, 0x0000, 0x0000, 0x0000, 0x0000, 0x0000, 0x0000, 0x0000,
   0x0000, 0x0000, 0x0000, 0x0000, 0x0000, 0x0000, 0x0000, 0x0000, 0x0000,
   0x0000, 0x0000, 0x0000, 0x0000, 0x0000, 0x0000, 0x0000, 0x0000, 0x0000,
   0x0000, 0x0000, 0x0000, 0x0000, 0x0000, 0x0000, 0x0000, 0x0000, 0x0000,
   0x0000, 0x0000, 0x0000, 0x0000, 0x0000, 0x0000, 0x0000, 0x0000, 0x0000,
   0x0000, 0x0000, 0x0000, 0x0000, 0x0000, 0x0000, 0x0000, 0x0000, 0x0000,
   0x0000, 0x0000, 0x0000, 0x0000, 0x0000, 0x0000, 0x0000, 0x0000, 0x0000,
   0x0000, 0x0000, 0x0000, 0x0000, 0x0000, 0x0000, 0x0000, 0x0000, 0x0000,
   0x0000, 0x0000, 0x0000, 0x0000, 0x0000, 0x0000, 0x0000, 0x0000, 0x0000,
   0x0000, 0x0000, 0x0000, 0x0000, 0x0000, 0x0000, 0x0000, 0x0000, 0x0000,
   0x0000, 0x0000, 0x0000, 0x0000, 0x0000, 0x0000, 0x0000, 0x0000 };
